<?xml version="1.0" encoding="UTF-8"?>
<svg id="Layer_1" data-name="Layer 1" xmlns="http://www.w3.org/2000/svg" viewBox="0 0 150.57 150.57">
  <defs>
    <style>
      .cls-1, .cls-2 {
        fill: #fff;
      }

      .cls-2 {
        font-family: MotoGPDisplay-Bold, 'MotoGP Display';
        font-size: 12.8px;
        font-weight: 700;
      }
    </style>
  </defs>
  <text className="cls-2" transform="translate(75.19 10.45) rotate(2.95)"><tspan x="0" y="0">D</tspan></text>
  <text className="cls-2" transform="translate(85.14 11.27) rotate(9.99)"><tspan x="0" y="0">I</tspan></text>
  <text className="cls-2" transform="translate(91 12.36) rotate(17.03)"><tspan x="0" y="0">G</tspan></text>
  <text className="cls-2" transform="translate(100.35 15.55) rotate(24.11)"><tspan x="0" y="0">I</tspan></text>
  <text className="cls-2" transform="translate(105.77 18.06) rotate(30.85)"><tspan x="0" y="0">T</tspan></text>
  <text className="cls-2" transform="translate(112.96 22.52) rotate(38.57)"><tspan x="0" y="0">A</tspan></text>
  <text className="cls-2" transform="translate(120.29 28.66) rotate(46.41)"><tspan x="0" y="0">L</tspan></text>
  <text className="cls-2" transform="translate(126 35.02) rotate(52.57)"><tspan x="0" y="0"> </tspan></text>
  <text className="cls-2" transform="translate(129.26 39.37) rotate(59.06)"><tspan x="0" y="0">T</tspan></text>
  <text className="cls-2" transform="translate(133.8 47.35) rotate(67.34)"><tspan x="0" y="0">R</tspan></text>
  <text className="cls-2" transform="translate(137.22 56.03) rotate(75.77)"><tspan x="0" y="0">A</tspan></text>
  <text className="cls-2" transform="translate(139.41 65.53) rotate(84.72)"><tspan x="0" y="0">N</tspan></text>
  <text className="cls-2" transform="translate(140.11 75.92) rotate(93.31)"><tspan x="0" y="0">S</tspan></text>
  <text className="cls-2" transform="translate(139.34 85.2) rotate(101.27)"><tspan x="0" y="0">F</tspan></text>
  <text className="cls-2" transform="translate(137.51 93.58) rotate(109.43)"><tspan x="0" y="0">O</tspan></text>
  <text className="cls-2" transform="translate(134.01 102.8) rotate(118.03)"><tspan x="0" y="0">R</tspan></text>
  <text className="cls-2" transform="translate(129.5 111.06) rotate(127.95)"><tspan x="0" y="0">M</tspan></text>
  <text className="cls-2" transform="translate(121.15 121.12) rotate(137.97)"><tspan x="0" y="0">A</tspan></text>
  <text className="cls-2" transform="translate(114.34 127.03) rotate(145.66)"><tspan x="0" y="0">T</tspan></text>
  <text className="cls-2" transform="translate(106.56 132.02) rotate(152.4)"><tspan x="0" y="0">I</tspan></text>
  <text className="cls-2" transform="translate(101.22 134.74) rotate(159.47)"><tspan x="0" y="0">O</tspan></text>
  <text className="cls-2" transform="translate(91.95 137.98) rotate(168.48)"><tspan x="0" y="0">N</tspan></text>
  <text className="cls-2" transform="translate(81.62 139.74) rotate(175.51)"><tspan x="0" y="0"> </tspan></text>
  <text className="cls-2" transform="translate(76.21 140.12) rotate(-177.78)"><tspan x="0" y="0">D</tspan></text>
  <text className="cls-2" transform="translate(66.26 139.43) rotate(-170.75)"><tspan x="0" y="0">I</tspan></text>
  <text className="cls-2" transform="translate(60.37 138.41) rotate(-163.7)"><tspan x="0" y="0">G</tspan></text>
  <text className="cls-2" transform="translate(50.99 135.34) rotate(-156.64)"><tspan x="0" y="0">I</tspan></text>
  <text className="cls-2" transform="translate(45.54 132.9) rotate(-149.88)"><tspan x="0" y="0">T</tspan></text>
  <text className="cls-2" transform="translate(38.28 128.54) rotate(-142.16)"><tspan x="0" y="0">A</tspan></text>
  <text className="cls-2" transform="translate(30.88 122.49) rotate(-134.32)"><tspan x="0" y="0">L</tspan></text>
  <text className="cls-2" transform="translate(25.09 116.2) rotate(-128.16)"><tspan x="0" y="0"> </tspan></text>
  <text className="cls-2" transform="translate(21.78 111.89) rotate(-121.67)"><tspan x="0" y="0">T</tspan></text>
  <text className="cls-2" transform="translate(17.13 103.96) rotate(-113.39)"><tspan x="0" y="0">R</tspan></text>
  <text className="cls-2" transform="translate(13.61 95.33) rotate(-104.96)"><tspan x="0" y="0">A</tspan></text>
  <text className="cls-2" transform="translate(11.29 85.88) rotate(-96.02)"><tspan x="0" y="0">N</tspan></text>
  <text className="cls-2" transform="translate(10.46 75.48) rotate(-87.42)"><tspan x="0" y="0">S</tspan></text>
  <text className="cls-2" transform="translate(11.11 66.2) rotate(-79.47)"><tspan x="0" y="0">F</tspan></text>
  <text className="cls-2" transform="translate(12.83 57.79) rotate(-71.3)"><tspan x="0" y="0">O</tspan></text>
  <text className="cls-2" transform="translate(16.21 48.54) rotate(-62.71)"><tspan x="0" y="0">R</tspan></text>
  <text className="cls-2" transform="translate(20.62 40.21) rotate(-52.78)"><tspan x="0" y="0">M</tspan></text>
  <text className="cls-2" transform="translate(28.84 30.04) rotate(-42.76)"><tspan x="0" y="0">A</tspan></text>
  <text className="cls-2" transform="translate(35.57 24.05) rotate(-35.07)"><tspan x="0" y="0">T</tspan></text>
  <text className="cls-2" transform="translate(43.29 18.97) rotate(-28.34)"><tspan x="0" y="0">I</tspan></text>
  <text className="cls-2" transform="translate(48.58 16.18) rotate(-21.28)"><tspan x="0" y="0">O</tspan></text>
  <text className="cls-2" transform="translate(57.82 12.81) rotate(-12.26)"><tspan x="0" y="0">N</tspan></text>
  <path className="cls-1" d="m63.73,83.89l16.75-16.75h-8.81v-1.77h10.18c.92,0,1.66.75,1.66,1.66v10.18h-1.77v-8.81l-16.75,16.75-1.25-1.25Z"/>
</svg>