<svg width="61" height="60" viewBox="0 0 61 60" fill="none" xmlns="http://www.w3.org/2000/svg">
<path d="M50.5 32.5H47.445L50.07 29.875C51.96 27.9875 53 25.475 53 22.8025C53 20.13 51.96 17.62 50.07 15.7325L44.7675 10.43C40.99 6.65 34.4025 6.6525 30.625 10.43L28 13.055V10C28 4.485 23.515 0 18 0H10.5C4.985 0 0.5 4.485 0.5 10V46.25C0.5 53.8325 6.6675 60 14.25 60H50.5C56.015 60 60.5 55.515 60.5 50V42.5C60.5 36.985 56.015 32.5 50.5 32.5ZM34.16 13.965C36.0475 12.0775 39.34 12.075 41.2325 13.965L46.535 19.2675C47.48 20.2125 48 21.4675 48 22.8025C48 24.1375 47.48 25.395 46.535 26.34L28 44.875V20.125L34.16 13.965ZM5.5 20H23V30H5.5V20ZM10.5 5H18C20.7575 5 23 7.2425 23 10V15H5.5V10C5.5 7.2425 7.7425 5 10.5 5ZM5.5 46.25V35H23V46.25C23 51.075 19.075 55 14.25 55C9.425 55 5.5 51.075 5.5 46.25ZM55.5 50C55.5 52.7575 53.2575 55 50.5 55H24.945L42.445 37.5H50.5C53.2575 37.5 55.5 39.7425 55.5 42.5V50ZM14.25 50C12.18 50 10.5 48.32 10.5 46.25C10.5 44.18 12.18 42.5 14.25 42.5C16.32 42.5 18 44.18 18 46.25C18 48.32 16.32 50 14.25 50Z" fill="url(#paint0_linear_180_16974)"/>
<defs>
<linearGradient id="paint0_linear_180_16974" x1="30.5" y1="0" x2="30.5" y2="60" gradientUnits="userSpaceOnUse">
<stop stop-color="#F37032"/>
<stop offset="1" stop-color="#ED384C"/>
</linearGradient>
</defs>
</svg>
