<svg width="128" height="128" viewBox="0 0 128 128" fill="none" xmlns="http://www.w3.org/2000/svg">
<g filter="url(#filter0_d_299_4234)">
<rect x="24" y="20" width="80" height="80" rx="20" fill="#1F1F1F" shape-rendering="crispEdges"/>
<rect x="24.5" y="20.5" width="79" height="79" rx="19.5" stroke="#302F2F" shape-rendering="crispEdges"/>
<g clip-path="url(#clip0_299_4234)" filter="url(#filter1_di_299_4234)">
<path d="M77.3333 61.6667H75.2967L77.0467 59.9167C78.3067 58.6583 79 56.9833 79 55.2017C79 53.42 78.3067 51.7467 77.0467 50.4883L73.5117 46.9533C70.9933 44.4333 66.6017 44.435 64.0833 46.9533L62.3333 48.7033V46.6667C62.3333 42.99 59.3433 40 55.6667 40H50.6667C46.99 40 44 42.99 44 46.6667V70.8333C44 75.8883 48.1117 80 53.1667 80H77.3333C81.01 80 84 77.01 84 73.3333V68.3333C84 64.6567 81.01 61.6667 77.3333 61.6667ZM66.44 49.31C67.6983 48.0517 69.8933 48.05 71.155 49.31L74.69 52.845C75.32 53.475 75.6667 54.3117 75.6667 55.2017C75.6667 56.0917 75.32 56.93 74.69 57.56L62.3333 69.9167V53.4167L66.44 49.31ZM47.3333 53.3333H59V60H47.3333V53.3333ZM50.6667 43.3333H55.6667C57.505 43.3333 59 44.8283 59 46.6667V50H47.3333V46.6667C47.3333 44.8283 48.8283 43.3333 50.6667 43.3333ZM47.3333 70.8333V63.3333H59V70.8333C59 74.05 56.3833 76.6667 53.1667 76.6667C49.95 76.6667 47.3333 74.05 47.3333 70.8333ZM80.6667 73.3333C80.6667 75.1717 79.1717 76.6667 77.3333 76.6667H60.2967L71.9633 65H77.3333C79.1717 65 80.6667 66.495 80.6667 68.3333V73.3333ZM53.1667 73.3333C51.7867 73.3333 50.6667 72.2133 50.6667 70.8333C50.6667 69.4533 51.7867 68.3333 53.1667 68.3333C54.5467 68.3333 55.6667 69.4533 55.6667 70.8333C55.6667 72.2133 54.5467 73.3333 53.1667 73.3333Z" fill="url(#paint0_linear_299_4234)"/>
</g>
</g>
<defs>
<filter id="filter0_d_299_4234" x="0" y="0" width="128" height="128" filterUnits="userSpaceOnUse" color-interpolation-filters="sRGB">
<feFlood flood-opacity="0" result="BackgroundImageFix"/>
<feColorMatrix in="SourceAlpha" type="matrix" values="0 0 0 0 0 0 0 0 0 0 0 0 0 0 0 0 0 0 127 0" result="hardAlpha"/>
<feOffset dy="4"/>
<feGaussianBlur stdDeviation="12"/>
<feComposite in2="hardAlpha" operator="out"/>
<feColorMatrix type="matrix" values="0 0 0 0 0 0 0 0 0 0 0 0 0 0 0 0 0 0 0.15 0"/>
<feBlend mode="normal" in2="BackgroundImageFix" result="effect1_dropShadow_299_4234"/>
<feBlend mode="normal" in="SourceGraphic" in2="effect1_dropShadow_299_4234" result="shape"/>
</filter>
<filter id="filter1_di_299_4234" x="40" y="40" width="48" height="48" filterUnits="userSpaceOnUse" color-interpolation-filters="sRGB">
<feFlood flood-opacity="0" result="BackgroundImageFix"/>
<feColorMatrix in="SourceAlpha" type="matrix" values="0 0 0 0 0 0 0 0 0 0 0 0 0 0 0 0 0 0 127 0" result="hardAlpha"/>
<feOffset dy="4"/>
<feGaussianBlur stdDeviation="2"/>
<feComposite in2="hardAlpha" operator="out"/>
<feColorMatrix type="matrix" values="0 0 0 0 0 0 0 0 0 0 0 0 0 0 0 0 0 0 0.25 0"/>
<feBlend mode="normal" in2="BackgroundImageFix" result="effect1_dropShadow_299_4234"/>
<feBlend mode="normal" in="SourceGraphic" in2="effect1_dropShadow_299_4234" result="shape"/>
<feColorMatrix in="SourceAlpha" type="matrix" values="0 0 0 0 0 0 0 0 0 0 0 0 0 0 0 0 0 0 127 0" result="hardAlpha"/>
<feOffset dy="4"/>
<feGaussianBlur stdDeviation="2"/>
<feComposite in2="hardAlpha" operator="arithmetic" k2="-1" k3="1"/>
<feColorMatrix type="matrix" values="0 0 0 0 1 0 0 0 0 1 0 0 0 0 1 0 0 0 0.25 0"/>
<feBlend mode="normal" in2="shape" result="effect2_innerShadow_299_4234"/>
</filter>
<linearGradient id="paint0_linear_299_4234" x1="64" y1="40" x2="64" y2="80" gradientUnits="userSpaceOnUse">
<stop stop-color="#F37032"/>
<stop offset="1" stop-color="#ED384C"/>
</linearGradient>
<clipPath id="clip0_299_4234">
<rect width="40" height="40" fill="white" transform="translate(44 40)"/>
</clipPath>
</defs>
</svg>
