<svg width="48" height="48" viewBox="0 0 48 48" fill="none" xmlns="http://www.w3.org/2000/svg">
<g clip-path="url(#clip0_223_486)">
<path d="M20 48H0V44H20V48ZM16 36H0V40H16V36ZM12 28H0V32H12V28ZM24 0C17.6369 0.00688216 11.5364 2.53766 7.03704 7.03704C2.53766 11.5364 0.00688216 17.6369 0 24H4C4 20.0444 5.17298 16.1776 7.37061 12.8886C9.56824 9.59961 12.6918 7.03616 16.3463 5.52241C20.0009 4.00866 24.0222 3.61259 27.9018 4.38429C31.7814 5.156 35.3451 7.06081 38.1421 9.85786C40.9392 12.6549 42.844 16.2186 43.6157 20.0982C44.3874 23.9778 43.9913 27.9991 42.4776 31.6537C40.9638 35.3082 38.4004 38.4318 35.1114 40.6294C31.8224 42.827 27.9556 44 24 44V48C30.3652 48 36.4697 45.4714 40.9706 40.9706C45.4714 36.4697 48 30.3652 48 24C48 17.6348 45.4714 11.5303 40.9706 7.02944C36.4697 2.52856 30.3652 0 24 0ZM22 14V24.828L28.586 31.414L31.414 28.586L26 23.172V14H22Z" fill="white"/>
</g>
<defs>
<clipPath id="clip0_223_486">
<rect width="48" height="48" fill="white"/>
</clipPath>
</defs>
</svg>
