<svg width="100" height="100" viewBox="0 0 100 100" fill="none" xmlns="http://www.w3.org/2000/svg">
<circle cx="43.5" cy="42.5" r="14.5" fill="#474951"/>
<path d="M41.3871 21C42.5575 21 43.7289 21 44.8993 21C45.7132 21.1271 46.5327 21.2247 47.3409 21.3848C59.6844 23.833 67.5033 35.8447 64.7313 48.0903C61.4825 62.4425 45.1376 69.7042 32.3378 62.4742C32.0154 62.2926 31.7328 62.262 31.3866 62.3596C28.4704 63.1791 25.5508 63.9895 22.6312 64.7976C22.1375 64.9338 21.6391 65.053 21.0886 65.1937C21.1317 65.003 21.1488 64.9111 21.1726 64.8214C22.0875 61.5208 23.0081 58.2225 23.906 54.9174C23.9764 54.6586 23.9764 54.3045 23.8538 54.0809C21.2895 49.4376 20.4699 44.5139 21.3281 39.277C22.7198 30.7758 29.6805 23.4039 38.1202 21.5789C39.2009 21.345 40.2985 21.1907 41.3871 21ZM44.8175 48.2719C44.8175 47.5728 44.838 46.9133 44.8096 46.2573C44.7914 45.8475 44.9038 45.5558 45.225 45.2778C46.0821 44.5377 46.9119 43.7659 47.7337 42.9873C49.4432 41.3688 50.1606 39.3598 49.8587 37.0456C49.4421 33.8619 46.8381 31.4886 43.5746 31.2082C40.5903 30.9517 37.6242 32.9675 36.6888 35.9333C36.4856 36.5757 36.4323 37.2658 36.304 37.9717H39.6992C39.7355 37.7515 39.7684 37.5472 39.8036 37.3441C40.1169 35.5247 42.0183 34.241 43.8141 34.653C45.1376 34.956 46.0378 35.7585 46.4101 37.066C46.7904 38.3996 46.4283 39.571 45.4226 40.5164C44.2261 41.6412 43.0013 42.7365 41.7992 43.8545C41.6584 43.9861 41.4882 44.1814 41.4848 44.3493C41.4587 45.6466 41.47 46.944 41.47 48.2708H44.8175V48.2719ZM44.7937 51.7257H41.5041V55.0604H44.7937V51.7257Z" fill="#F37032"/>
<path d="M78.9985 61.8945C78.8157 62.8513 78.7317 63.8399 78.4275 64.757C77.9144 66.304 77.2821 67.8136 76.6499 69.3186C76.5023 69.6693 76.433 69.9542 76.5375 70.3242C77.3082 73.0584 78.0608 75.7983 78.8191 78.536C78.8441 78.6245 78.86 78.7164 78.8952 78.8799C78.6602 78.8333 78.4672 78.8084 78.2799 78.7561C75.6498 78.0297 73.0197 77.3056 70.3941 76.561C69.99 76.4464 69.6676 76.4657 69.2862 76.6768C60.2176 81.6788 48.7447 78.3317 43.7876 69.2516C43.7002 69.0904 43.6275 68.9213 43.5186 68.6921C50.4043 68.4651 56.3218 66.0282 61.1632 61.1919C66.0102 56.3511 68.4507 50.4332 68.6869 43.5312C68.8764 43.6186 69.0263 43.6743 69.1636 43.7526C74.5113 46.7921 77.7339 51.3276 78.776 57.3999C78.8452 57.8039 78.9224 58.2057 78.9962 58.6087C78.9962 59.7039 78.9962 60.7992 78.9962 61.8934L78.9985 61.8945Z" fill="#ED384C"/>
</svg>
