<svg width="100" height="100" viewBox="0 0 100 100" fill="none" xmlns="http://www.w3.org/2000/svg">
<g clip-path="url(#clip0_261_571)">
<path d="M24.0003 59.0927C24.219 58.3374 24.3487 57.5393 24.6742 56.8346C25.9267 54.117 28.0375 52.5531 30.9887 52.339C32.465 52.2313 33.954 52.3208 35.4798 52.3208C35.4455 52.4662 35.4061 52.5933 35.387 52.7231C35.2166 53.8782 34.9165 55.0332 34.9038 56.1896C34.8504 61.177 34.8746 66.1658 34.8886 71.1532C34.8898 71.7489 35.003 72.3446 35.0691 72.987C34.4944 72.987 33.9057 72.987 33.3169 72.987C31.8292 72.987 30.339 72.9468 28.8525 72.9961C26.3972 73.0766 24.383 71.4011 24.055 69.0196C24.0512 68.9898 24.0181 68.9638 23.999 68.9366C23.999 65.6557 23.999 62.3736 23.999 59.0927H24.0003Z" fill="#ED384C" fill-opacity="0.4"/>
<path d="M49.9905 72.9883C46.5573 72.9883 43.1242 72.9883 39.6897 72.9883C38.4436 72.9883 37.8994 72.4328 37.8994 71.1623C37.8994 66.1385 37.8892 61.116 37.9019 56.0922C37.9121 52.3247 40.2225 49.3449 43.7904 48.4923C44.3118 48.3677 44.8611 48.3184 45.3977 48.3158C48.4583 48.2989 51.5202 48.2846 54.5821 48.3132C58.1946 48.3469 61.1115 50.7569 61.9049 54.3467C62.0334 54.9294 62.0715 55.5432 62.0741 56.1428C62.0868 61.1666 62.083 66.1891 62.0804 71.2129C62.0804 72.4147 61.5197 72.987 60.3422 72.987C56.8925 72.9896 53.4415 72.987 49.9918 72.987L49.9905 72.9883Z" fill="#F37032"/>
<path d="M49.9968 28C54.9393 28.0039 58.9981 32.1192 59.0159 37.1404C59.0337 42.2148 55.0029 46.3639 50.0096 46.4119C45.0747 46.4599 40.9332 42.2096 40.965 37.1274C40.9968 32.0985 45.0556 27.9961 49.9968 28Z" fill="#85889D"/>
<path d="M64.9959 72.9649C65.0315 71.732 65.0925 70.5302 65.0963 69.3272C65.1103 65.7881 65.1065 62.2477 65.0988 58.7085C65.0938 56.575 65.2527 54.4245 64.4707 52.3688C64.5686 52.3234 64.6118 52.287 64.6538 52.287C66.125 52.2974 67.6013 52.2325 69.0661 52.3376C72.9074 52.6128 75.8994 55.8326 75.9668 59.7572C76.0164 62.6227 76.0062 65.4896 75.9719 68.3551C75.9426 70.8495 74.2019 72.8325 71.8279 72.9415C69.534 73.0467 67.2312 72.9649 64.9959 72.9649Z" fill="#ED384C" fill-opacity="0.4"/>
<path d="M27.3975 43.4555C27.4026 39.6621 30.4288 36.5863 34.1507 36.5889C37.8763 36.5915 40.9102 39.6919 40.8822 43.4685C40.8543 47.2698 37.8178 50.3689 34.1354 50.3534C30.4174 50.3378 27.3911 47.2399 27.3975 43.4568V43.4555Z" fill="#85889D" fill-opacity="0.4"/>
<path d="M72.5847 43.444C72.6063 47.2193 69.5851 50.321 65.857 50.3522C62.1834 50.3833 59.1381 47.2842 59.0999 43.479C59.0631 39.7063 62.0932 36.5981 65.8201 36.5877C69.5419 36.5773 72.5631 39.6401 72.5847 43.444Z" fill="#85889D" fill-opacity="0.4"/>
</g>
<defs>
<clipPath id="clip0_261_571">
<rect width="52" height="45" fill="white" transform="translate(24 28)"/>
</clipPath>
</defs>
</svg>
