<svg width="60" height="52" viewBox="0 0 60 52" fill="none" xmlns="http://www.w3.org/2000/svg">
<g clip-path="url(#clip0_261_572)">
<path d="M-0.000485953 35.8763C0.251868 35.0048 0.401519 34.0838 0.777115 33.2707C2.22228 30.135 4.65778 28.3306 8.06309 28.0835C9.76648 27.9592 11.4845 28.0625 13.2451 28.0625C13.2055 28.2302 13.16 28.377 13.138 28.5267C12.9414 29.8595 12.5952 31.1922 12.5805 32.5264C12.5189 38.2812 12.5468 44.0375 12.5629 49.7922C12.5644 50.4796 12.695 51.1669 12.7712 51.9081C12.1081 51.9081 11.4288 51.9081 10.7495 51.9081C9.03289 51.9081 7.31337 51.8617 5.59824 51.9186C2.76513 52.0115 0.441133 50.0782 0.0626024 47.3304C0.0582009 47.2959 0.0200545 47.266 -0.00195312 47.2345C-0.00195312 43.449 -0.00195312 39.6619 -0.00195312 35.8763H-0.000485953Z" fill="#ED384C"/>
<path d="M29.989 51.9095C26.0276 51.9095 22.0663 51.9095 18.1034 51.9095C16.6656 51.9095 16.0376 51.2686 16.0376 49.8026C16.0376 44.0059 16.0259 38.2107 16.0406 32.414C16.0523 28.0669 18.7182 24.6287 22.8351 23.6449C23.4366 23.5011 24.0704 23.4442 24.6896 23.4412C28.221 23.4218 31.754 23.4053 35.2869 23.4382C39.4552 23.4772 42.8209 26.258 43.7364 30.3999C43.8846 31.0723 43.9286 31.7806 43.9315 32.4724C43.9462 38.2691 43.9418 44.0643 43.9389 49.861C43.9389 51.2477 43.2918 51.908 41.9332 51.908C37.9528 51.911 33.9709 51.908 29.9905 51.908L29.989 51.9095Z" fill="#F37032"/>
<path d="M29.9967 3.19504e-06C35.6996 0.00449559 40.3828 4.75296 40.4034 10.5466C40.4239 16.4017 35.773 21.1891 30.0114 21.2445C24.3173 21.2999 19.5387 16.3957 19.5754 10.5317C19.6121 4.729 24.2953 -0.0044892 29.9967 3.19504e-06Z" fill="#ED384C"/>
<path d="M47.3032 51.8826C47.3443 50.46 47.4147 49.0733 47.4191 47.6852C47.4353 43.6016 47.4309 39.5165 47.422 35.4329C47.4162 32.9711 47.5996 30.4898 46.6973 28.1178C46.8102 28.0654 46.8601 28.0235 46.9085 28.0235C48.6061 28.0355 50.3094 27.9606 51.9996 28.0819C56.432 28.3994 59.8842 32.1146 59.962 36.6429C60.0192 39.9493 60.0075 43.2572 59.9678 46.5636C59.9341 49.4417 57.9255 51.7298 55.1863 51.8556C52.5395 51.9769 49.8825 51.8826 47.3032 51.8826Z" fill="#ED384C"/>
<path d="M3.91993 17.8332C3.9258 13.4562 7.41767 9.90716 11.7121 9.91016C16.0109 9.91315 19.5116 13.4906 19.4793 17.8482C19.447 22.2343 15.9434 25.8102 11.6945 25.7923C7.40447 25.7743 3.9126 22.1998 3.91993 17.8347V17.8332Z" fill="#F37032"/>
<path d="M56.0588 17.8198C56.0837 22.176 52.5977 25.7549 48.296 25.7908C44.0573 25.8268 40.5434 22.2508 40.4994 17.8603C40.4569 13.5071 43.9531 9.9207 48.2534 9.90872C52.5478 9.89674 56.0338 13.4308 56.0588 17.8198Z" fill="#F37032"/>
</g>
<defs>
<clipPath id="clip0_261_572">
<rect width="60" height="51.9231" fill="white"/>
</clipPath>
</defs>
</svg>
