<svg width="36" height="36" viewBox="0 0 36 36" fill="none" xmlns="http://www.w3.org/2000/svg">
<g clip-path="url(#clip0_223_486)">
<path d="M15 36H0V33H15V36ZM12 27H0V30H12V27ZM9 21H0V24H9V21ZM18 0C13.2277 0.00516162 8.65232 1.90324 5.27778 5.27778C1.90324 8.65232 0.00516162 13.2277 0 18H3C3 15.0333 3.87973 12.1332 5.52796 9.66645C7.17618 7.19971 9.51886 5.27712 12.2597 4.14181C15.0006 3.00649 18.0166 2.70944 20.9264 3.28822C23.8361 3.867 26.5088 5.29561 28.6066 7.3934C30.7044 9.49119 32.133 12.1639 32.7118 15.0736C33.2906 17.9834 32.9935 20.9994 31.8582 23.7403C30.7229 26.4811 28.8003 28.8238 26.3336 30.472C23.8668 32.1203 20.9667 33 18 33V36C22.7739 36 27.3523 34.1036 30.7279 30.7279C34.1036 27.3523 36 22.7739 36 18C36 13.2261 34.1036 8.64773 30.7279 5.27208C27.3523 1.89642 22.7739 0 18 0ZM16.5 10.5V18.621L21.4395 23.5605L23.5605 21.4395L19.5 17.379V10.5H16.5Z" fill="white"/>
</g>
<defs>
<clipPath id="clip0_223_486">
<rect width="36" height="36" fill="white"/>
</clipPath>
</defs>
</svg>
