<svg width="50" height="50" viewBox="0 0 50 50" fill="none" xmlns="http://www.w3.org/2000/svg">
<g clip-path="url(#clip0_44_1048)">
<mask id="mask0_44_1048" style="mask-type:luminance" maskUnits="userSpaceOnUse" x="0" y="0" width="50" height="50">
<path d="M50 0H0V50H50V0Z" fill="white"/>
</mask>
<g mask="url(#mask0_44_1048)">
<path d="M25.0675 11.9263C32.4033 11.9713 38.1638 17.8219 38.1188 25.1576C38.0738 32.3583 32.1332 38.1639 24.9325 38.1189C17.6868 38.0739 11.9262 32.1333 11.9712 24.8426C12.0162 17.7318 17.9568 11.8813 25.1125 11.9713L25.0675 11.9263ZM33.3934 30.9632C36.3636 27.2728 36.3186 20.9272 31.7282 17.0118C27.3627 13.2764 20.6571 13.9065 16.9667 18.4069C13.4114 22.7724 14.4015 28.3529 16.6067 31.0082C16.6067 30.4231 16.6067 29.8831 16.6067 29.343C16.6067 28.0829 17.1917 27.0928 18.3618 26.5077C18.7669 26.3277 19.2169 26.1927 19.622 26.0577C20.5671 25.7427 21.4672 25.4726 22.4573 25.1576C22.3672 25.0676 22.3672 25.0226 22.3222 25.0226C20.9721 23.6724 20.5671 22.0973 20.9271 20.2521C21.5122 17.5518 24.4825 16.1117 26.9127 17.4168C28.5779 18.3169 29.523 20.3421 29.1179 22.3223C28.8929 23.4024 28.3979 24.3475 27.5428 25.1576C27.6328 25.2026 27.7228 25.2476 27.7678 25.2476C28.9379 25.6076 30.153 25.9677 31.3231 26.3727C32.4933 26.7778 33.2133 27.6328 33.3483 28.848C33.4384 29.523 33.3483 30.2431 33.3483 30.9632H33.3934Z" fill="white"/>
<path d="M19.3069 4.68042C19.3069 5.13046 18.9919 5.53551 18.4518 5.71552C16.2916 6.4356 14.3114 7.5157 12.5112 8.91084C9.31593 11.4311 7.0657 14.5814 5.71557 18.4068C5.49054 19.0369 5.0405 19.3519 4.50045 19.2619C3.82538 19.1269 3.51035 18.4968 3.73537 17.8217C4.99549 14.1314 7.11071 10.936 9.99099 8.32578C12.2862 6.25558 14.8515 4.77043 17.7318 3.78033C18.4968 3.5103 19.2619 4.00535 19.2619 4.72542L19.3069 4.68042Z" fill="white"/>
<path d="M31.9082 46.3549C31.2781 46.3549 30.8731 45.9948 30.783 45.4998C30.693 45.0047 30.9631 44.5547 31.5031 44.3747C33.3033 43.7446 35.0135 42.9345 36.5436 41.8544C40.189 39.3342 42.7542 36.0038 44.2394 31.8634C44.2844 31.7284 44.3294 31.5934 44.3744 31.4584C44.5994 30.9183 45.0945 30.6933 45.6345 30.8283C46.1746 30.9633 46.4896 31.5034 46.3546 32.0434C46.1296 32.7635 45.9046 33.4386 45.5895 34.1136C42.8893 40.0542 38.4338 44.1046 32.2682 46.3099C32.1332 46.3549 31.9532 46.3999 31.9082 46.3999V46.3549Z" fill="white"/>
<path d="M46.3997 18.1819C46.3997 18.722 46.0396 19.172 45.5446 19.262C45.0495 19.352 44.5545 19.082 44.3744 18.5419C43.8794 17.1468 43.2943 15.7967 42.4843 14.5365C39.919 10.3511 36.2736 7.38082 31.6382 5.71566C30.9631 5.49064 30.6481 5.08559 30.7381 4.54554C30.8281 3.87047 31.5032 3.46543 32.2232 3.73546C33.7084 4.23051 35.1485 4.90558 36.4987 5.71566C41.1341 8.55094 44.3745 12.4663 46.2196 17.5968C46.2646 17.7319 46.3096 17.8669 46.3546 18.0469C46.3546 18.0919 46.3546 18.1819 46.3546 18.2269L46.3997 18.1819Z" fill="white"/>
<path d="M18.1818 46.4446C17.6868 46.2646 17.1917 46.0846 16.6967 45.9046C11.0711 43.6093 6.97569 39.649 4.45544 34.1584C4.18541 33.5283 3.96039 32.8983 3.73537 32.2682C3.51035 31.5931 3.73537 31.0531 4.36543 30.8281C4.95049 30.648 5.49054 30.9631 5.71557 31.5931C7.29072 36.1386 10.126 39.739 14.2214 42.3492C15.5716 43.2043 17.0117 43.8794 18.5418 44.3744C18.9919 44.5094 19.2619 44.8245 19.3069 45.2745C19.3069 45.6796 19.1719 46.0396 18.8119 46.2646C18.6319 46.3546 18.4518 46.3996 18.2268 46.4896L18.1818 46.4446Z" fill="white"/>
<path d="M22.3672 4.63534C23.2223 5.53543 24.1224 6.43552 25.0225 7.33561C25.9225 6.39051 26.8226 5.49042 27.7227 4.59033C28.2628 5.13039 28.7128 5.62544 29.1629 6.07548C27.8127 7.42562 26.4176 8.77575 25.0675 10.1709C23.7173 8.82076 22.3222 7.42562 20.972 6.03048C21.4221 5.58043 21.9171 5.13039 22.4122 4.59033L22.3672 4.63534Z" fill="white"/>
<path d="M6.07558 29.1177C5.67054 28.6677 5.2205 28.2177 4.72545 27.6776C5.58053 26.8225 6.48062 25.9224 7.42572 25.0223C6.48062 24.0772 5.53553 23.1771 4.63544 22.2771C5.17549 21.737 5.62554 21.287 6.07558 20.8369C7.42572 22.2321 8.82086 23.5822 10.171 24.9773C8.82086 26.2825 7.47072 27.6776 6.03058 29.0727L6.07558 29.1177Z" fill="white"/>
<path d="M39.829 24.9773C41.1791 23.6272 42.5743 22.2321 43.9694 20.8369C44.4194 21.287 44.8695 21.782 45.3645 22.2771C44.5094 23.1321 43.6094 24.0322 42.6643 24.9323C43.6544 25.8774 44.5545 26.7775 45.4545 27.6776C44.9595 28.1726 44.4644 28.6677 44.0144 29.1177C42.6193 27.7226 41.2691 26.3275 39.874 24.9773H39.829Z" fill="white"/>
<path d="M20.8821 43.8796C22.2322 42.5295 23.6274 41.1343 24.9775 39.7842C26.3726 41.1793 27.7228 42.5295 29.1179 43.9246C28.6679 44.3296 28.1728 44.7797 27.6778 45.2747C26.8677 44.4196 25.9676 43.5196 25.0675 42.5745C24.1224 43.5196 23.2673 44.4196 22.3672 45.3197C21.8272 44.7797 21.3771 44.2846 20.8821 43.8346V43.8796Z" fill="white"/>
<path d="M21.9622 1.44014C22.4122 0.990099 22.9073 0.540054 23.4023 0.0450045C23.9424 0.585059 24.4374 1.12511 25.0225 1.71017C25.6075 1.12511 26.1026 0.540054 26.6426 0C27.1827 0.540054 27.6327 1.0351 28.0828 1.53015C27.0927 2.52025 26.0576 3.55536 25.0675 4.54545C24.0774 3.55536 23.0423 2.52025 22.0072 1.48515L21.9622 1.44014Z" fill="white"/>
<path d="M48.2898 24.9777C48.9199 25.6078 49.4599 26.1028 50 26.5979C49.4599 27.0929 48.9649 27.588 48.5148 27.993C47.5697 27.0479 46.5346 26.0128 45.4995 24.9777C46.4896 23.9876 47.5247 22.9525 48.5148 21.9624C48.9649 22.4124 49.4149 22.9075 49.91 23.4025C49.4149 23.8526 48.8749 24.3926 48.2448 24.9327L48.2898 24.9777Z" fill="white"/>
<path d="M4.59044 25.0226C3.55533 26.0577 2.52023 27.0478 1.53013 28.0829C1.08009 27.6329 0.585037 27.1378 0.0899874 26.6428C0.630041 26.1477 1.1701 25.6077 1.75515 25.0226C1.12509 24.4826 0.585037 23.9425 0.0449829 23.4475C0.585037 22.9074 1.08009 22.4574 1.57514 22.0073C2.56523 22.9974 3.60034 24.0325 4.63544 25.0676L4.59044 25.0226Z" fill="white"/>
<path d="M26.6427 50C26.1026 49.4599 25.6076 48.9199 25.0675 48.2898C24.4825 48.9199 23.9874 49.4599 23.4924 50C22.9523 49.4599 22.4572 48.9649 22.0072 48.5148C22.9973 47.5247 24.0324 46.5346 25.0225 45.4995C26.0126 46.4896 27.0477 47.5247 28.0828 48.5598C27.6328 49.0099 27.1827 49.4599 26.6427 50Z" fill="white"/>
</g>
</g>
<defs>
<clipPath id="clip0_44_1048">
<rect width="50" height="50" fill="white"/>
</clipPath>
</defs>
</svg>
