<svg width="100" height="100" viewBox="0 0 100 100" fill="none" xmlns="http://www.w3.org/2000/svg">
<g clip-path="url(#clip0_261_625)">
<path d="M50.0687 34.844C58.5558 34.91 65.2547 41.6978 65.1931 50.176C65.1314 58.5132 58.2519 65.2526 49.875 65.1822C41.4716 65.1117 34.7859 58.2623 34.8431 49.793C34.9004 41.5349 41.7799 34.7868 50.0687 34.8484V34.844ZM59.7141 56.9417C63.1363 52.6455 63.1319 45.3074 57.7762 40.7514C52.6937 36.4243 44.9113 37.155 40.6568 42.3669C36.5388 47.4159 37.6663 53.9088 40.2604 56.9814C40.2604 56.3123 40.2472 55.6828 40.2604 55.0533C40.3 53.5699 40.9563 52.443 42.2952 51.7783C42.7576 51.5494 43.2729 51.4261 43.7706 51.2676C44.8453 50.9243 45.9243 50.5897 47.0518 50.2332C46.9681 50.1407 46.9329 50.0923 46.8933 50.0527C45.3474 48.5076 44.8453 46.6412 45.2945 44.5327C45.9595 41.3853 49.4301 39.7566 52.2489 41.2356C54.2 42.2613 55.2614 44.6339 54.8078 46.9273C54.5567 48.1995 53.9797 49.2912 52.9712 50.198C53.0945 50.2508 53.1606 50.2816 53.231 50.3036C54.6008 50.7394 55.9749 51.1488 57.3314 51.6154C58.6879 52.082 59.5247 53.0548 59.6921 54.4811C59.789 55.2866 59.7097 56.1142 59.7097 56.9329L59.7141 56.9417Z" fill="#F37032"/>
<path d="M43.365 26.4276C43.365 26.969 43.0126 27.4004 42.3828 27.6161C39.8812 28.4701 37.5821 29.707 35.4989 31.3402C31.7949 34.241 29.1656 37.9123 27.6241 42.3582C27.3774 43.0713 26.8225 43.4587 26.2103 43.3311C25.4351 43.1726 25.0476 42.4595 25.3206 41.6495C26.7873 37.3444 29.2228 33.6688 32.5965 30.6226C35.2347 28.2456 38.2472 26.5024 41.5989 25.3271C42.5061 25.0102 43.365 25.5824 43.3606 26.4276H43.365Z" fill="#F37032"/>
<path d="M58.0048 74.7785C57.2869 74.7785 56.7892 74.3692 56.6835 73.7837C56.5822 73.2158 56.9037 72.6656 57.5071 72.4543C59.5903 71.728 61.559 70.7728 63.3736 69.5138C67.5841 66.5997 70.557 62.7348 72.3143 57.9323C72.376 57.7694 72.4244 57.6021 72.4861 57.4393C72.7283 56.8318 73.3361 56.5281 73.9439 56.7041C74.5605 56.8846 74.9481 57.4613 74.7587 58.104C74.5208 58.9183 74.2258 59.7239 73.8734 60.4986C70.7199 67.3833 65.5713 72.1066 58.4364 74.6641C58.2602 74.7257 58.0708 74.7565 58.0004 74.7741L58.0048 74.7785Z" fill="#F37032"/>
<path d="M74.8074 42.0896C74.8162 42.7323 74.4154 43.2209 73.8165 43.3354C73.2571 43.4454 72.6934 43.1153 72.482 42.5254C71.9006 40.9011 71.2135 39.3296 70.3106 37.855C67.3157 32.9776 63.1317 29.5661 57.732 27.6469C56.9745 27.3784 56.5957 26.8941 56.6794 26.2779C56.7895 25.4723 57.547 25.0453 58.3927 25.3314C60.1367 25.9169 61.7972 26.674 63.3695 27.6293C68.7339 30.8955 72.4908 35.4823 74.6268 41.3897C74.6841 41.5526 74.7325 41.7199 74.7766 41.8872C74.7986 41.962 74.7986 42.0412 74.803 42.0852L74.8074 42.0896Z" fill="#F37032"/>
<path d="M42.0973 74.8445C41.5203 74.6376 40.9345 74.4483 40.3708 74.215C33.8524 71.5298 29.1178 66.9782 26.1846 60.569C25.8587 59.8515 25.59 59.1075 25.3302 58.3636C25.0615 57.5977 25.3742 56.9374 26.0657 56.7173C26.7263 56.506 27.3473 56.8538 27.6072 57.5977C29.4526 62.8932 32.747 67.0399 37.4728 70.0508C39.0363 71.0456 40.7099 71.8292 42.4672 72.4146C42.9781 72.5863 43.304 72.9341 43.3569 73.4711C43.4053 73.9509 43.2071 74.3427 42.7931 74.5936C42.5993 74.7124 42.3571 74.7521 42.0973 74.8401V74.8445Z" fill="#F37032"/>
<path d="M46.9236 26.3968C47.9322 27.4312 48.954 28.4789 49.9846 29.5354C51.0461 28.4613 52.0767 27.418 53.1073 26.3748C53.7106 27.0042 54.248 27.5721 54.7721 28.1179C53.2174 29.663 51.6054 31.2653 50.0111 32.8544C48.4563 31.2961 46.8444 29.6806 45.2412 28.0739C45.7609 27.5545 46.3159 27.0042 46.9281 26.3968H46.9236Z" fill="#85889D"/>
<path d="M28.0252 54.7849C27.5451 54.2831 27.0166 53.724 26.4572 53.1297C27.457 52.1481 28.5096 51.1137 29.5843 50.0616C28.47 48.9699 27.4174 47.9355 26.3604 46.8966C26.9725 46.2935 27.5231 45.7521 28.0472 45.2371C29.6327 46.8306 31.2359 48.4373 32.8082 50.0176C31.2667 51.5538 29.6548 53.165 28.0252 54.7849Z" fill="#85889D"/>
<path d="M67.1875 49.9912C68.751 48.4197 70.3498 46.813 71.9661 45.1931C72.4814 45.739 73.01 46.298 73.5693 46.8835C72.5607 47.8695 71.5081 48.8996 70.4335 49.9472C71.561 51.0609 72.6092 52.1042 73.653 53.1342C73.0628 53.7329 72.5167 54.2831 71.9926 54.8114C70.385 53.1958 68.7863 51.5891 67.1919 49.9868L67.1875 49.9912Z" fill="#85889D"/>
<path d="M45.2285 71.8864C46.8097 70.3017 48.404 68.7038 49.9763 67.1279C51.5707 68.7302 53.1738 70.3369 54.7726 71.9437C54.2705 72.4191 53.7024 72.9605 53.099 73.5328C52.1432 72.5599 51.1082 71.5079 50.0468 70.425C48.9722 71.5299 47.9504 72.5775 46.933 73.6208C46.3252 73.0001 45.7791 72.4455 45.2329 71.882L45.2285 71.8864Z" fill="#85889D"/>
<path d="M46.457 22.6903C46.9944 22.1665 47.5405 21.6251 48.1086 21.066C48.712 21.6867 49.3242 22.3162 49.9805 22.9941C50.6411 22.2898 51.2401 21.6515 51.8567 21C52.4689 21.6471 53.0062 22.2149 53.5347 22.7696C52.3896 23.9053 51.196 25.0938 50.0245 26.2559C48.8574 25.0894 47.6682 23.9009 46.457 22.6859V22.6903Z" fill="#85889D"/>
<path d="M76.9964 49.9429C77.7495 50.6516 78.3749 51.2459 79.0003 51.8357C78.3793 52.4256 77.8112 52.9582 77.2695 53.4688C76.1552 52.3551 74.9616 51.1622 73.7725 49.9737C74.9308 48.8204 76.1111 47.6407 77.2915 46.4609C77.8068 46.998 78.3485 47.557 78.9123 48.1469C78.3397 48.6795 77.7011 49.2782 76.992 49.9341L76.9964 49.9429Z" fill="#85889D"/>
<path d="M26.2988 50.0353C25.1053 51.2238 23.9205 52.4035 22.7446 53.5744C22.2028 53.033 21.6479 52.4828 21.0577 51.8973C21.6787 51.2986 22.3086 50.6868 23.0044 50.0177C22.2953 49.3662 21.6523 48.7719 21.0049 48.1777C21.6435 47.5614 22.2028 47.0199 22.7578 46.4873C23.9073 47.6362 25.0921 48.8247 26.3032 50.0397L26.2988 50.0353Z" fill="#85889D"/>
<path d="M51.8923 78.9868C51.2889 78.3441 50.6988 77.7103 50.0601 77.0236C49.4039 77.7367 48.8093 78.3794 48.2324 79C47.5893 78.3529 47.0388 77.7983 46.4971 77.2525C47.6378 76.1168 48.8313 74.9326 50.0117 73.7617C51.1744 74.9326 52.3636 76.13 53.5439 77.3185C53.0462 77.8203 52.5045 78.3662 51.8879 78.9824L51.8923 78.9868Z" fill="#85889D"/>
<path d="M59.7136 56.9419C59.7136 56.1231 59.7929 55.2956 59.696 54.49C59.5243 53.0638 58.6918 52.091 57.3353 51.6243C55.9788 51.1577 54.6003 50.7484 53.2349 50.3126C53.1645 50.2906 53.0984 50.2553 52.9751 50.2069C53.9793 49.3001 54.5562 48.2084 54.8117 46.9363C55.2653 44.6429 54.2039 42.2702 52.2528 41.2446C49.434 39.7611 45.9635 41.3898 45.2984 44.5416C44.8536 46.6502 45.3513 48.5166 46.8972 50.0617C46.9368 50.1013 46.9721 50.1497 47.0557 50.2421C45.9282 50.5987 44.8492 50.9332 43.7745 51.2766C43.2769 51.4351 42.7616 51.5583 42.2991 51.7872C40.9602 52.4563 40.304 53.5788 40.2643 55.0623C40.2467 55.6917 40.2643 56.3212 40.2643 56.9903C37.6658 53.9222 36.5427 47.4249 40.6607 42.3759C44.9153 37.164 52.6932 36.4332 57.7802 40.7604C63.1314 45.312 63.1402 52.65 59.718 56.9507L59.7136 56.9419Z" fill="#ED384C"/>
</g>
<defs>
<clipPath id="clip0_261_625">
<rect width="58" height="58" fill="white" transform="translate(21 21)"/>
</clipPath>
</defs>
</svg>
