<svg width="141" height="140" viewBox="0 0 141 140" fill="none" xmlns="http://www.w3.org/2000/svg">
<g filter="url(#filter0_d_203_79)">
<rect x="24.5" y="20" width="92" height="92" rx="20" fill="#1F1F1F" shape-rendering="crispEdges"/>
<rect x="25" y="20.5" width="91" height="91" rx="19.5" stroke="#302F2F" shape-rendering="crispEdges"/>
<path d="M90.5 51V51.6H77.675C70.25 51.6 66.8 55.05 66.8 62.475V75.25H64.875V84.125H66.8V87.875H52.875C51.85 87.875 51 87.025 51 86C51 84.975 51.85 84.125 52.875 84.125H61.125V75.25H55.5C47.675 75.25 45.575 73.325 45.5 65.75V51C45.5 43 47.5 41 55.5 41H80.5C88.5 41 90.5 43 90.5 51Z" fill="white"/>
<path d="M90.4998 55.475C89.8748 55.4 89.1498 55.35 88.3748 55.35H77.6748C72.3248 55.35 70.5498 57.125 70.5498 62.475V84.125C70.5748 85.675 70.7498 86.9 71.1248 87.875C71.9998 90.15 73.9748 91 77.6748 91H88.3748C93.7248 91 95.4998 89.225 95.4998 83.875V62.475C95.4998 57.9 94.1998 55.95 90.4998 55.475ZM83.0248 61.225C85.1998 61.225 86.9498 62.975 86.9498 65.15C86.9498 67.325 85.1998 69.075 83.0248 69.075C80.8498 69.075 79.0998 67.325 79.0998 65.15C79.0998 62.975 80.8498 61.225 83.0248 61.225ZM83.0248 83.875C80.0748 83.875 77.6748 81.475 77.6748 78.525C77.6748 77.3 78.0998 76.15 78.7998 75.25C79.7748 74 81.2998 73.175 83.0248 73.175C84.3748 73.175 85.5998 73.675 86.5248 74.475C87.6498 75.475 88.3748 76.925 88.3748 78.525C88.3748 81.475 85.9748 83.875 83.0248 83.875Z" fill="#ED384C"/>
<path d="M90.4998 55.475C89.8748 55.4 89.1498 55.35 88.3748 55.35H77.6748C72.3248 55.35 70.5498 57.125 70.5498 62.475V84.125C70.5748 85.675 70.7498 86.9 71.1248 87.875C71.9998 90.15 73.9748 91 77.6748 91H88.3748C93.7248 91 95.4998 89.225 95.4998 83.875V62.475C95.4998 57.9 94.1998 55.95 90.4998 55.475ZM83.0248 61.225C85.1998 61.225 86.9498 62.975 86.9498 65.15C86.9498 67.325 85.1998 69.075 83.0248 69.075C80.8498 69.075 79.0998 67.325 79.0998 65.15C79.0998 62.975 80.8498 61.225 83.0248 61.225ZM83.0248 83.875C80.0748 83.875 77.6748 81.475 77.6748 78.525C77.6748 77.3 78.0998 76.15 78.7998 75.25C79.7748 74 81.2998 73.175 83.0248 73.175C84.3748 73.175 85.5998 73.675 86.5248 74.475C87.6498 75.475 88.3748 76.925 88.3748 78.525C88.3748 81.475 85.9748 83.875 83.0248 83.875Z" fill="white"/>
</g>
<defs>
<filter id="filter0_d_203_79" x="0.5" y="0" width="140" height="140" filterUnits="userSpaceOnUse" color-interpolation-filters="sRGB">
<feFlood flood-opacity="0" result="BackgroundImageFix"/>
<feColorMatrix in="SourceAlpha" type="matrix" values="0 0 0 0 0 0 0 0 0 0 0 0 0 0 0 0 0 0 127 0" result="hardAlpha"/>
<feOffset dy="4"/>
<feGaussianBlur stdDeviation="12"/>
<feComposite in2="hardAlpha" operator="out"/>
<feColorMatrix type="matrix" values="0 0 0 0 0 0 0 0 0 0 0 0 0 0 0 0 0 0 0.15 0"/>
<feBlend mode="normal" in2="BackgroundImageFix" result="effect1_dropShadow_203_79"/>
<feBlend mode="normal" in="SourceGraphic" in2="effect1_dropShadow_203_79" result="shape"/>
</filter>
</defs>
</svg>
